<?xml version="1.0" encoding="UTF-8" standalone="no"?>
<svg
   id="SVGRoot"
   width="256px"
   height="256px"
   version="1.1"
   viewBox="0 0 256 256"
   sodipodi:docname="logo.svg"
   inkscape:version="1.4.2 (ebf0e940, 2025-05-08)"
   inkscape:export-filename=".idea/icon.png"
   inkscape:export-xdpi="96"
   inkscape:export-ydpi="96"
   xml:space="preserve"
   xmlns:inkscape="http://www.inkscape.org/namespaces/inkscape"
   xmlns:sodipodi="http://sodipodi.sourceforge.net/DTD/sodipodi-0.dtd"
   xmlns:xlink="http://www.w3.org/1999/xlink"
   xmlns="http://www.w3.org/2000/svg"
   xmlns:svg="http://www.w3.org/2000/svg"><defs
     id="defs1"><linearGradient
       id="linearGradient144"
       inkscape:collect="always"><stop
         style="stop-color:#0d5a8e;stop-opacity:1;"
         offset="0.11237554"
         id="stop144" /><stop
         style="stop-color:#0e649c;stop-opacity:1;"
         offset="0.19487908"
         id="stop145" /></linearGradient><linearGradient
       inkscape:collect="always"
       xlink:href="#linearGradient144"
       id="linearGradient145"
       x1="0"
       y1="142.875"
       x2="508"
       y2="142.875"
       gradientUnits="userSpaceOnUse"
       gradientTransform="matrix(3.7795276,0,0,3.7795276,-667.99997,-439.00002)" /></defs><sodipodi:namedview
     id="namedview1"
     pagecolor="#ffffff"
     bordercolor="#111111"
     borderopacity="1"
     inkscape:showpageshadow="0"
     inkscape:pageopacity="0"
     inkscape:pagecheckerboard="1"
     inkscape:deskcolor="#d1d1d1"
     inkscape:zoom="3.046875"
     inkscape:cx="128"
     inkscape:cy="242.54359"
     inkscape:window-width="1728"
     inkscape:window-height="1051"
     inkscape:window-x="0"
     inkscape:window-y="38"
     inkscape:window-maximized="1"
     inkscape:current-layer="SVGRoot" /><rect
     style="fill:url(#linearGradient145);stroke:none;stroke-width:0.755904;stroke-linecap:round;stroke-linejoin:round"
     id="rect1"
     width="256"
     height="256"
     x="0"
     y="0" /><g
     id="g2"
     transform="translate(-6.697115,-2.455028)"><rect
       style="opacity:0.8;fill:none;fill-opacity:1;stroke:#ffffff;stroke-width:0.944882;stroke-linecap:round;stroke-linejoin:round;stroke-dasharray:none;stroke-opacity:1"
       id="rect2"
       width="207.50446"
       height="199.05515"
       x="30.944881"
       y="30.944881" /><path
       style="opacity:0.8;fill:none;fill-opacity:1;stroke:#ffffff;stroke-width:0.944878;stroke-linecap:round;stroke-linejoin:round;stroke-dasharray:none;stroke-opacity:1"
       d="M 130.94489,30.860396 V 230.04966"
       id="path2" /><path
       style="opacity:0.8;fill:none;fill-opacity:1;stroke:#ffffff;stroke-width:0.944878;stroke-linecap:round;stroke-linejoin:round;stroke-dasharray:none;stroke-opacity:1"
       d="M 230.9449,30.860396 V 230.04966"
       id="path3" /><path
       style="opacity:0.8;fill:none;fill-opacity:1;stroke:#ffffff;stroke-width:0.944878;stroke-linecap:round;stroke-linejoin:round;stroke-dasharray:none;stroke-opacity:1"
       d="M 30.79066,130.94489 H 238.60357"
       id="path20" /><path
       style="opacity:0.6;fill:none;fill-opacity:1;stroke:#ffffff;stroke-width:0.377952;stroke-linecap:round;stroke-linejoin:round;stroke-dasharray:none;stroke-opacity:1"
       d="M 30.79066,110.94489 H 238.60357"
       id="path30" /><path
       style="opacity:0.6;fill:none;fill-opacity:1;stroke:#ffffff;stroke-width:0.377952;stroke-linecap:round;stroke-linejoin:round;stroke-dasharray:none;stroke-opacity:1"
       d="M 30.79066,90.944887 H 238.60357"
       id="path31" /><path
       style="opacity:0.6;fill:none;fill-opacity:1;stroke:#ffffff;stroke-width:0.377952;stroke-linecap:round;stroke-linejoin:round;stroke-dasharray:none;stroke-opacity:1"
       d="M 30.79066,70.944885 H 238.60357"
       id="path32" /><path
       style="opacity:0.6;fill:none;fill-opacity:1;stroke:#ffffff;stroke-width:0.377952;stroke-linecap:round;stroke-linejoin:round;stroke-dasharray:none;stroke-opacity:1"
       d="M 30.79066,50.944884 H 238.60357"
       id="path33" /><path
       style="opacity:0.6;fill:none;fill-opacity:1;stroke:#ffffff;stroke-width:0.377952;stroke-linecap:round;stroke-linejoin:round;stroke-dasharray:none;stroke-opacity:1"
       d="M 30.79066,210.9449 H 238.60357"
       id="path34" /><path
       style="opacity:0.6;fill:none;fill-opacity:1;stroke:#ffffff;stroke-width:0.377952;stroke-linecap:round;stroke-linejoin:round;stroke-dasharray:none;stroke-opacity:1"
       d="M 30.79066,190.94489 H 238.60357"
       id="path35" /><path
       style="opacity:0.6;fill:none;fill-opacity:1;stroke:#ffffff;stroke-width:0.377952;stroke-linecap:round;stroke-linejoin:round;stroke-dasharray:none;stroke-opacity:1"
       d="M 30.79066,170.94489 H 238.60357"
       id="path36" /><path
       style="opacity:0.6;fill:none;fill-opacity:1;stroke:#ffffff;stroke-width:0.377952;stroke-linecap:round;stroke-linejoin:round;stroke-dasharray:none;stroke-opacity:1"
       d="M 30.79066,150.94489 H 238.60357"
       id="path37" /><path
       style="opacity:0.6;fill:none;fill-opacity:1;stroke:#ffffff;stroke-width:0.377953;stroke-linecap:round;stroke-linejoin:round;stroke-dasharray:none;stroke-opacity:1"
       d="M 50.944884,30.860396 V 230.04966"
       id="path70" /><path
       style="opacity:0.6;fill:none;fill-opacity:1;stroke:#ffffff;stroke-width:0.377953;stroke-linecap:round;stroke-linejoin:round;stroke-dasharray:none;stroke-opacity:1"
       d="M 70.944885,30.860396 V 230.04966"
       id="path71" /><path
       style="opacity:0.6;fill:none;fill-opacity:1;stroke:#ffffff;stroke-width:0.377953;stroke-linecap:round;stroke-linejoin:round;stroke-dasharray:none;stroke-opacity:1"
       d="M 90.944887,30.860396 V 230.04966"
       id="path72" /><path
       style="opacity:0.6;fill:none;fill-opacity:1;stroke:#ffffff;stroke-width:0.377953;stroke-linecap:round;stroke-linejoin:round;stroke-dasharray:none;stroke-opacity:1"
       d="M 110.94489,30.860396 V 230.04966"
       id="path73" /><path
       style="opacity:0.6;fill:none;fill-opacity:1;stroke:#ffffff;stroke-width:0.377953;stroke-linecap:round;stroke-linejoin:round;stroke-dasharray:none;stroke-opacity:1"
       d="M 150.94489,30.860396 V 230.04966"
       id="path74" /><path
       style="opacity:0.6;fill:none;fill-opacity:1;stroke:#ffffff;stroke-width:0.377953;stroke-linecap:round;stroke-linejoin:round;stroke-dasharray:none;stroke-opacity:1"
       d="M 170.94489,30.860396 V 230.04966"
       id="path75" /><path
       style="opacity:0.6;fill:none;fill-opacity:1;stroke:#ffffff;stroke-width:0.377953;stroke-linecap:round;stroke-linejoin:round;stroke-dasharray:none;stroke-opacity:1"
       d="M 190.94489,30.860396 V 230.04966"
       id="path76" /><path
       style="opacity:0.6;fill:none;fill-opacity:1;stroke:#ffffff;stroke-width:0.377953;stroke-linecap:round;stroke-linejoin:round;stroke-dasharray:none;stroke-opacity:1"
       d="M 210.9449,30.860396 V 230.04966"
       id="path77" /></g><g
     id="g1"
     transform="matrix(0.20978425,0,0,0.21025049,37.209708,177.06896)"
     style="stroke:#ffffff;stroke-width:4.76152"><path
       sodipodi:type="star"
       style="fill:none;fill-opacity:1;stroke:#ffffff;stroke-width:3.8108;stroke-linecap:round;stroke-linejoin:round;stroke-dasharray:none;stroke-opacity:1"
       id="path147"
       inkscape:flatsided="true"
       sodipodi:sides="6"
       sodipodi:cx="145.77087"
       sodipodi:cy="36.998871"
       sodipodi:r1="105.0409"
       sodipodi:r2="90.968094"
       sodipodi:arg1="0.52359878"
       sodipodi:arg2="1.0471976"
       inkscape:rounded="0"
       inkscape:randomized="-0.01445882"
       d="m 235.98121,88.880172 -89.41733,52.523688 -91.371524,-51.093449 0.08036,-104.60859 91.351789,-53.135899 89.43706,51.705659 z"
       inkscape:transform-center-x="0.17982399"
       inkscape:transform-center-y="-0.017469064"
       transform="matrix(4.7224381,0,0,4.7224203,-254.93495,-408.04152)" /><path
       id="path4-1"
       style="fill:none;stroke:#ffffff;stroke-width:23.8076;stroke-linecap:square;stroke-opacity:1"
       d="m 693.50033,-526.8252 c -0.46549,0.034 -2.11998,2.55257 -3.79548,5.79957 -3.8815,7.52209 -10.43459,17.92153 -16.78832,26.64155 -17.23805,23.65799 -42.03617,48.23108 -68.07492,67.45746 -12.99451,9.59478 -13.36196,9.8513 -19.39537,13.55081 -3.09214,1.89604 -9.29533,5.70316 -13.78439,8.4604 -7.78076,4.77899 -32.06842,17.42887 -39.40883,20.52521 -1.90288,0.80266 -5.40578,2.30162 -7.78439,3.33105 -14.55851,6.30066 -39.71316,14.4672 -53.19432,17.26976 -2.14072,0.445 -6.61671,1.41044 -9.94673,2.14511 -18.83158,4.1546 -47.29905,7.14035 -82.60089,8.66377 -5.94641,0.25663 -15.67684,0.82957 -21.62325,1.27374 -5.94644,0.44413 -14.11997,1.02705 -18.16354,1.29483 -7.32994,0.48548 -15.85523,1.40284 -28.97518,3.11761 -64.8649,8.47783 -120.60764,39.79605 -155.53743,87.38695 -39.72688,54.12673 -48.32716,129.98057 -20.96402,184.91033 5.84258,11.728706 11.25974,19.459351 19.89781,28.394306 8.36777,8.655424 14.45522,13.360474 24.04358,18.585754 l 7.18182,3.91343 7.76542,-1.56937 c 8.56086,-1.7311 23.13407,-4.8268 28.52387,-6.05854 1.9028,-0.43488 6.96261,-1.56303 11.2441,-2.50746 14.701,-3.24279 47.84243,-11.00704 52.32828,-12.25931 1.66499,-0.464806 9.83856,-2.559836 18.16354,-4.654791 38.72764,-9.745549 77.64223,-21.80572 102.27416,-31.697537 14.40628,-5.785361 39.77367,-17.935412 49.81024,-23.857362 3.48824,-2.05818 6.45483,-3.74226 6.5926,-3.74226 0.61938,0 16.87653,-10.02981 27.38872,-16.89744 10.49049,-6.85341 35.11136,-24.84518 41.1487,-30.06928 1.33436,-1.1546 6.70828,-5.73388 11.94115,-10.17645 12.5585,-10.6619 34.88791,-32.58954 45.27768,-44.46149 4.57837,-5.23151 8.52518,-9.70636 8.76938,-9.94417 0.24416,-0.23773 1.98765,-2.37792 3.87439,-4.75593 1.88674,-2.37796 3.63995,-4.51808 3.89662,-4.75589 0.6494,-0.60159 7.36626,-9.61705 12.56262,-16.86187 16.23817,-22.63945 32.49634,-52.39457 40.63287,-74.36516 1.7613,-4.75593 3.55737,-9.01666 3.9911,-9.46847 1.04085,-1.08416 1.02169,2.06593 -0.0412,6.70764 -8.67024,37.86565 -18.48019,63.66524 -37.05082,97.44669 -9.80671,17.83922 -27.73558,44.87577 -38.19149,57.59108 -1.21247,1.47451 -3.56681,4.38494 -5.23181,6.46867 -21.91074,27.42138 -55.06487,59.58225 -83.46693,80.967191 -45.13281,33.982149 -87.80613,54.725369 -151.79531,73.783859 -3.56787,1.06266 -10.57375,3.20841 -15.56878,4.76814 -4.99498,1.55974 -12.00087,3.70122 -15.56874,4.75926 -25.19943,7.47269 -77.23627,24.97557 -78.70983,26.4748 -0.23774,0.24189 1.31909,0.22185 3.45977,-0.0457 35.75895,-4.46521 59.16809,-4.85578 137.95752,-2.30071 28.97715,0.93974 107.49532,0.4201 121.09032,-0.80133 12.43041,-1.11678 41.43874,-4.79222 48.86971,-6.19193 7.19939,-1.35609 18.14203,-3.78153 25.51544,-5.65617 17.04037,-4.33244 42.5472,-13.73462 53.62571,-19.7672 1.90284,-1.03619 5.75618,-3.12775 8.5626,-4.6481 7.16167,-3.87984 16.14168,-9.77371 24.27586,-15.93158 8.55806,-6.47883 25.05356,-22.426467 31.01632,-29.985938 2.4384,-3.091351 4.65063,-5.815181 4.91611,-6.052951 1.22827,-1.100372 8.88045,-12.43733 13.13181,-19.455988 9.39024,-15.502526 20.44611,-40.074183 25.09524,-55.773883 2.77088,-9.3572 7.71624,-28.69278 8.51478,-33.29137 0.41291,-2.37796 1.16799,-6.65828 1.67758,-9.51182 7.98928,-44.73592 6.62888,-108.60246 -3.60091,-169.05211 -6.13069,-36.22745 -12.22658,-63.52996 -22.39479,-100.30759 -0.9862,-3.56693 -2.35896,-8.62549 -3.05061,-11.24123 -1.67157,-6.32163 -9.40955,-31.32098 -18.27137,-59.0293 -0.72484,-2.26632 -1.61511,-4.30398 -1.97779,-4.52806 -0.0189,-0.0113 -0.0378,-0.0151 -0.0601,-0.0151 z M 153.84362,-3.20602 c -18.33018,0.004 -33.24465,16.00509 -31.79123,34.10718 1.16277,14.48167 12.92583,27.15927 26.7984,28.88337 4.65694,0.57876 11.83498,0.0302 14.93952,-1.14591 8.24391,-3.11857 14.88696,-9.12915 18.41927,-16.66515 2.02718,-4.32495 2.33911,-6.08319 2.33911,-13.20408 0,-7.21266 -0.30198,-8.86813 -2.47253,-13.56529 C 177.09221,4.41876 165.39548,-3.20885 153.84362,-3.20602 Z" /></g></svg>
